<svg xmlns="http://www.w3.org/2000/svg" xml:space="preserve" viewBox="0 0 1024 1024" tabindex="-1" xmlns:xlink="http://www.w3.org/1999/xlink" x="0px" width="16px" y="0px" style="enable-background: new 0 0 1024 1024;" focusable="false" version="1.1" height="16px"><g tabindex="-1" focusable="false"><polygon tabindex="-1" focusable="false" points="0,0.001 0,0 0.001,0     "></polygon></g><g class="svg-navbar-lightgray" tabindex="-1" focusable="false"><path d="M124.523,970c-14.632,0-28.341-5.667-38.603-15.956C75.676,943.868,70.029,930.267,70,915.728
                    c-0.029-14.633,5.624-28.368,15.917-38.675l187.565-187.024l-3.021-4.152c-47.415-65.159-72.477-141.893-72.477-221.907
                    c0-51.021,9.994-100.515,29.705-147.108c19.04-45.006,46.297-85.429,81.015-120.145c34.718-34.716,75.144-61.973,120.154-81.011
                    C475.456,95.994,524.956,86,575.984,86s100.528,9.994,147.127,29.704c45.01,19.039,85.436,46.295,120.154,81.011
                    c34.718,34.716,61.975,75.139,81.015,120.145c19.71,46.593,29.704,96.087,29.704,147.108c0,51.028-9.994,100.529-29.705,147.126
                    c-19.039,45.011-46.296,85.437-81.014,120.155c-34.719,34.718-75.145,61.975-120.155,81.014
                    c-46.597,19.711-96.098,29.705-147.126,29.705c-79.716,0-156.195-24.87-221.168-71.922l-4.138-2.997L163.185,954.033
                    C152.886,964.331,139.158,970,124.523,970z M575.984,218c-135.645,0-246,110.341-246,245.969c0,135.645,110.355,246,246,246
                    c135.645,0,246-110.355,246-246C821.984,328.341,711.629,218,575.984,218z" tabindex="-1" focusable="false"></path></g></svg>