<?xml version="1.0" encoding="utf-8"?>
<!-- Generator: Adobe Illustrator 19.1.0, SVG Export Plug-In . SVG Version: 6.00 Build 0)  -->
<!DOCTYPE svg PUBLIC "-//W3C//DTD SVG 1.1//EN" "http://www.w3.org/Graphics/SVG/1.1/DTD/svg11.dtd">
<svg version="1.1" id="Layer_1" xmlns="http://www.w3.org/2000/svg" xmlns:xlink="http://www.w3.org/1999/xlink" x="0px" y="0px"
	 viewBox="0 0 521.6 141.7" style="enable-background:new 0 0 521.6 141.7;" xml:space="preserve">
<style type="text/css">
	.st0{fill:#183E7A;}
	.st1{fill:#116CB4;}
	.st2{fill:#39ABE2;}
</style>
<g>
	<g>
		<path class="st0" d="M108,122.8H49.1c-1.6,0-1.6-0.4-1.6-1v-20.9c0-1.2-0.9-2.1-2.1-2.1H25.1c-1.2,0-2.1,0.9-2.1,2.1v28.5
			c0,6.9,4.1,10.6,11.6,10.6H108c1.2,0,2.1-0.9,2.1-2.1v-13.1C110.1,123.7,109.1,122.8,108,122.8z"/>
		<path class="st0" d="M62.6,86.2c6.1-5.4,9.2-12.8,9.2-22c0-5.4-1.1-10.2-3.4-14.4h6.8c1.2,0,2.1-0.9,2.1-2.1v-13
			c0-1.2-0.9-2.1-2.1-2.1h-24V20.4c0-1.2-0.9-2.1-2.1-2.1H28.7c-1.2,0-2.1,0.9-2.1,2.1v12.2H2c-1.2,0-2.1,0.9-2.1,2.1v13
			c0,1.2,0.9,2.1,2.1,2.1h7.4C7.2,54,6,58.9,6,64.2c0,9.2,3.1,16.7,9.2,22c6.1,5.3,14,8,23.7,8C48.6,94.3,56.6,91.6,62.6,86.2z
			 M31.9,73.3c-1.8-2.2-2.8-5.2-2.8-9.1c0-3.8,0.9-6.8,2.8-9c1.8-2.1,4.1-3.1,7.1-3.1c3,0,5.3,1,7.1,3.1c1.8,2.2,2.8,5.2,2.8,9
			c0,3.8-1,6.9-2.8,9.1c-1.8,2.1-4.1,3.2-7.1,3.2C36,76.4,33.7,75.4,31.9,73.3z"/>
		<path class="st0" d="M123.5,56.1H106V24.2c0-1.2-0.9-2.1-2.1-2.1H83.6c-1.2,0-2.1,0.9-2.1,2.1v83.1c0,1.2,0.9,2.1,2.1,2.1h20.3
			c1.2,0,2.1-0.9,2.1-2.1V73.3h17.5c1.2,0,2.1-0.9,2.1-2.1v-13C125.6,57,124.7,56.1,123.5,56.1z"/>
		<path class="st0" d="M251.6,63.9H136.1c-1.2,0-2.1,0.9-2.1,2.1v12.8c0,1.2,0.9,2.1,2.1,2.1h44.6V94h-30.2c-1.2,0-2.1,0.9-2.1,2.1
			v13c0,1.2,0.9,2.1,2.1,2.1h61.9c1.1,0,1.8,0.1,1.8,2.2v26.3c0,1.2,0.9,2.1,2.1,2.1h18.4c1.1,0,2-0.9,2.1-2l2.1-34.7
			c0.3-3.6-0.5-6.4-2.3-8.3c-1.8-1.9-4.5-2.9-8-2.9h-23.4V80.9h46.3c1.2,0,2.1-0.9,2.1-2.1V66C253.7,64.9,252.8,63.9,251.6,63.9z"/>
		<path class="st0" d="M152.1,39.6h60.9c2,0,2,0.3,2,1.6v16.6c0,1.2,0.9,2.1,2.1,2.1h18.9c1.1,0,2.1-0.9,2.1-2l1-24.6
			c0.2-1.9,0.4-6.6-1.9-8.9c-1.7-1.7-4.4-2.6-8.4-2.6h-76.7c-1.2,0-2.1,0.9-2.1,2.1v13.7C149.9,38.7,150.9,39.6,152.1,39.6z"/>
		<path class="st0" d="M475.4,83.8V79c0-7.9,6.5-14.4,14.4-14.4h1.5c0.3,0,0.8,0,1.5,0c1.3,0,3.1,0,4.8,0h13.4c1.5,0,3.2,0,4.8,0
			c1.2,0,2.3,0,3,0c1.7,0,3-2.2,3-4.8V47.7c0-2.6-2.2-4.8-4.8-4.8h-26h-4.8c-21.1,0-38.3,17.2-38.3,38.3V86v12.5v4.8
			c0,21.1,17.2,38.3,38.3,38.3h4.8h26c2.6,0,4.8-2.2,4.8-4.8v-12.2c0-2.6-1.4-4.8-3-4.8c-0.7,0-1.8,0-3,0c-1.6,0-3.3,0-4.8,0h-13.4
			c-1.7,0-3.5,0-4.8,0c-0.7,0-1.2,0-1.5,0h-1.5c-7.9,0-14.4-6.5-14.4-14.4v-4.8V83.8z"/>
		<path class="st0" d="M438.8,46.7c0-2.8-2.9-3.4-2.9-3.4c-49.4-6.2-59.3,5.3-59.3,5.3c-8,5.9-8.4,17.9-8.4,17.9v0v71.4
			c0,2,1.7,3.7,3.7,3.7h18.7c2,0,3.7-1.7,3.7-3.7V100h33.9c2,0,3.7-1.7,3.7-3.7V85.6c0-2-1.7-3.7-3.7-3.7h-33.9V68.7
			c0-4.4,3.6-8,8-8h28.5h3.8c2.3,0,4.1-1.9,4.1-4.1c0,0,0,0,0,0v-0.1l0,0L438.8,46.7z"/>
		<path class="st0" d="M351.7,68.1h-17.3c-1.3,0-2.4,0.6-3,1.6c-0.4,0.5-0.6,1.1-0.6,1.9v29.1c0,2-0.9,2.3-2.1,0.6l-37.9-55.6
			c-1.1-1.7-3.7-3-5.7-3h-0.2h-11.5h-5.8c-2,0-3.7,1.7-3.7,3.7v91.7c0,2,1.7,3.7,3.7,3.7h17.3c1.4,0,2.6-0.8,3.2-1.9
			c0.4-0.3,0.6-0.9,0.6-1.7L288.5,86c0-2,0.9-2.3,2-0.6l36.1,53.4c1.1,1.7,3.7,3,5.7,3h2h5.6h11.7c2,0,3.7-1.7,3.7-3.7V71.8
			C355.3,69.8,353.7,68.1,351.7,68.1z"/>
		<circle class="st0" cx="343.5" cy="52.9" r="8.6"/>
		<g>
			<path class="st1" d="M370,33.1c-9.8-11.8-24.6-11.6-26.5-11.6c-9.4,0-16,3.1-19.8,5.7c-4.3,2.9-6.4,5.9-6.6,6.2
				c-1.6,2.4-1,5.7,1.5,7.4c2.4,1.6,5.7,1,7.4-1.5c0-0.1,5.1-7.2,17.7-7.2l0.1,0l0.2,0c0.2,0,3.1-0.1,6.6,0.8
				c4.7,1.2,8.5,3.5,11.3,6.9c1.1,1.3,2.6,1.9,4.1,1.9c1.2,0,2.4-0.4,3.4-1.2C371.6,38.7,371.9,35.4,370,33.1z"/>
		</g>
		<g>
			<path class="st2" d="M300.8,26c2.4,1.7,5.7,1.1,7.4-1.3c0,0,2.5-3.3,7.7-6.7c5.2-3.3,14.3-7.3,27.6-7.3l0.1,0l0.2,0
				c0.2,0,5.8-0.2,13,1.5c9.5,2.3,17.1,6.7,22.8,13.1c1.1,1.2,2.5,1.8,4,1.8c1.2,0,2.5-0.4,3.5-1.3c2.2-1.9,2.4-5.3,0.5-7.5
				c-4-4.5-8.8-8.3-14.4-11.2c-4.4-2.3-9.2-4.1-14.3-5.3c-8-1.9-14.3-1.7-15.5-1.7c-30.6,0-43.4,17.7-43.9,18.4
				C297.8,21,298.4,24.3,300.8,26z"/>
		</g>
	</g>
</g>
</svg>
